PathFileType	4	(X/Y/Z) flx_0kg_3.trc																										
DataRate	CameraRate	NumFrames	NumMarkers	Units	OrigDataRate	OrigDataStartFrame	OrigNumFrames																					
100	100	39	9	mm	100	1	835																					
Frame#	Time	gu			centelbow			EpL			centpxt8			centijc7			ij			ts			aa			ai		
		X1	Y1	Z1	X2	Y2	Z2	X3	Y3	Z3	X4	Y4	Z4	X5	Y5	Z5	X6	Y6	Z6	X7	Y7	Z7	X8	Y8	Z8	X9	Y9	Z9  
0	0	-79.854	-15.312	164.486	-119.521	-256.555	199.311	-100.214	-251.974	224.722	-46.816	-153.158	-8.669	-46.816	31.938	-8.669	0	0	0	-137.184	23.408	51.793	-109.662	21.682	167.829	-149.747	-89.213	58.454
1	0.01	-79.841	-15.362	164.642	-119.504	-256.611	199.43	-100.201	-252.032	224.843	-46.816	-153.158	-8.669	-46.816	31.938	-8.669	0	0	0	-137.125	23.472	51.84	-109.603	21.733	167.875	-149.673	-89.151	58.485
2	0.02	-79.892	-15.393	164.741	-119.543	-256.648	199.496	-100.243	-252.071	224.912	-46.816	-153.158	-8.669	-46.816	31.938	-8.669	0	0	0	-137.069	23.523	51.818	-109.547	21.77	167.854	-149.604	-89.103	58.448
3	0.03	-80	-15.355	164.67	-119.634	-256.615	199.416	-100.333	-252.038	224.832	-46.816	-153.158	-8.669	-46.816	31.938	-8.669	0	0	0	-137.055	23.543	51.671	-109.534	21.777	167.707	-149.591	-89.083	58.287
4	0.04	-80.065	-15.294	164.565	-119.68	-256.556	199.316	-100.378	-251.978	224.73	-46.816	-153.158	-8.669	-46.816	31.938	-8.669	0	0	0	-137.074	23.531	51.554	-109.554	21.752	167.59	-149.62	-89.095	58.159
5	0.05	-80.041	-15.272	164.606	-119.638	-256.537	199.352	-100.338	-251.957	224.767	-46.816	-153.158	-8.669	-46.816	31.938	-8.669	0	0	0	-137.075	23.492	51.608	-109.573	21.698	167.648	-149.639	-89.132	58.202
6	0.06	-80.007	-15.291	164.764	-119.584	-256.563	199.489	-100.29	-251.982	224.909	-46.816	-153.158	-8.669	-46.816	31.938	-8.669	0	0	0	-137.033	23.474	51.794	-109.566	21.668	167.842	-149.612	-89.15	58.376
7	0.07	-80.039	-15.333	164.873	-119.601	-256.611	199.573	-100.314	-252.03	224.999	-46.816	-153.158	-8.669	-46.816	31.938	-8.669	0	0	0	-136.985	23.534	51.982	-109.556	21.723	168.039	-149.56	-89.091	58.553
8	0.08	-80.095	-15.396	164.858	-119.66	-256.674	199.549	-100.375	-252.094	224.976	-46.816	-153.158	-8.669	-46.816	31.938	-8.669	0	0	0	-137	23.643	52.09	-109.596	21.83	168.152	-149.556	-88.985	58.652
9	0.09	-80.099	-15.476	164.825	-119.687	-256.751	199.513	-100.4	-252.173	224.939	-46.816	-153.158	-8.669	-46.816	31.938	-8.669	0	0	0	-137.102	23.681	52.161	-109.715	21.864	168.228	-149.649	-88.948	58.714
10	0.1	-80.119	-15.53	164.856	-119.731	-256.804	199.529	-100.445	-252.229	224.957	-46.816	-153.158	-8.669	-46.816	31.938	-8.669	0	0	0	-137.244	23.587	52.275	-109.875	21.762	168.345	-149.807	-89.04	58.821
11	0.11	-80.267	-15.508	164.896	-119.879	-256.786	199.544	-100.595	-252.213	224.974	-46.816	-153.158	-8.669	-46.816	31.938	-8.669	0	0	0	-137.345	23.465	52.407	-109.994	21.625	168.481	-149.938	-89.159	58.943
12	0.12	-80.471	-15.452	164.899	-120.064	-256.736	199.518	-100.782	-252.165	224.949	-46.816	-153.158	-8.669	-46.816	31.938	-8.669	0	0	0	-137.368	23.431	52.481	-110.022	21.567	168.557	-149.981	-89.193	58.999
13	0.13	-80.58	-15.431	164.911	-120.155	-256.722	199.503	-100.874	-252.152	224.934	-46.816	-153.158	-8.669	-46.816	31.938	-8.669	0	0	0	-137.334	23.443	52.475	-109.985	21.556	168.549	-149.952	-89.182	58.972
14	0.14	-80.581	-15.437	164.969	-120.152	-256.731	199.55	-100.872	-252.161	224.983	-46.816	-153.158	-8.669	-46.816	31.938	-8.669	0	0	0	-137.272	23.418	52.412	-109.916	21.524	168.485	-149.888	-89.206	58.902
15	0.15	-80.543	-15.44	165.06	-120.12	-256.731	199.646	-100.843	-252.161	225.08	-46.816	-153.158	-8.669	-46.816	31.938	-8.669	0	0	0	-137.218	23.38	52.34	-109.851	21.494	168.41	-149.832	-89.245	58.839
16	0.16	-80.487	-15.447	165.121	-120.061	-256.738	199.712	-100.786	-252.166	225.148	-46.816	-153.158	-8.669	-46.816	31.938	-8.669	0	0	0	-137.221	23.368	52.299	-109.843	21.493	168.367	-149.833	-89.256	58.81
17	0.17	-80.415	-15.463	165.067	-119.962	-256.759	199.659	-100.687	-252.184	225.095	-46.816	-153.158	-8.669	-46.816	31.938	-8.669	0	0	0	-137.305	23.373	52.263	-109.928	21.5	168.331	-149.915	-89.251	58.775
18	0.18	-80.342	-15.46	164.866	-119.848	-256.762	199.465	-100.572	-252.184	224.9	-46.816	-153.158	-8.669	-46.816	31.938	-8.669	0	0	0	-137.397	23.413	52.146	-110.03	21.533	168.217	-150.002	-89.213	58.65
19	0.19	-80.286	-15.428	164.631	-119.758	-256.733	199.244	-100.481	-252.151	224.677	-46.816	-153.158	-8.669	-46.816	31.938	-8.669	0	0	0	-137.388	23.498	51.947	-110.023	21.61	168.018	-149.984	-89.129	58.44
20	0.2	-80.276	-15.43	164.535	-119.74	-256.735	199.156	-100.463	-252.152	224.588	-46.816	-153.158	-8.669	-46.816	31.938	-8.669	0	0	0	-137.317	23.52	51.784	-109.947	21.627	167.854	-149.913	-89.107	58.273
21	0.21	-80.33	-15.525	164.566	-119.809	-256.83	199.175	-100.534	-252.249	224.609	-46.816	-153.158	-8.669	-46.816	31.938	-8.669	0	0	0	-137.319	23.376	51.723	-109.956	21.482	167.794	-149.926	-89.25	58.213
22	0.22	-80.409	-15.65	164.504	-119.903	-256.955	199.096	-100.63	-252.376	224.533	-46.816	-153.158	-8.669	-46.816	31.938	-8.669	0	0	0	-137.387	23.17	51.676	-110.049	21.271	167.753	-150.005	-89.455	58.161
23	0.23	-80.453	-15.702	164.259	-119.943	-257.008	198.851	-100.672	-252.428	224.289	-46.816	-153.158	-8.669	-46.816	31.938	-8.669	0	0	0	-137.409	23.076	51.592	-110.11	21.162	167.678	-150.034	-89.549	58.058
24	0.24	-80.414	-15.713	163.996	-119.897	-257.017	198.6	-100.628	-252.436	224.039	-46.816	-153.158	-8.669	-46.816	31.938	-8.669	0	0	0	-137.345	23.085	51.541	-110.099	21.151	167.639	-149.98	-89.54	57.984
25	0.25	-80.303	-15.765	163.867	-119.783	-257.069	198.477	-100.522	-252.485	223.921	-46.816	-153.158	-8.669	-46.816	31.938	-8.669	0	0	0	-137.252	23.074	51.51	-110.06	21.125	167.621	-149.898	-89.551	57.935
26	0.26	-80.218	-15.838	163.8	-119.69	-257.145	198.403	-100.439	-252.558	223.855	-46.816	-153.158	-8.669	-46.816	31.938	-8.669	0	0	0	-137.22	23.025	51.368	-110.062	21.072	167.487	-149.866	-89.601	57.786
27	0.27	-80.225	-15.857	163.658	-119.671	-257.17	198.245	-100.43	-252.58	223.704	-46.816	-153.158	-8.669	-46.816	31.938	-8.669	0	0	0	-137.275	23.002	51.103	-110.127	21.055	167.224	-149.902	-89.625	57.519
28	0.28	-80.281	-15.81	163.452	-119.703	-257.13	198.02	-100.467	-252.538	223.483	-46.816	-153.158	-8.669	-46.816	31.938	-8.669	0	0	0	-137.338	23.029	50.853	-110.194	21.087	166.975	-149.94	-89.602	57.269
29	0.29	-80.34	-15.743	163.306	-119.772	-257.064	197.855	-100.538	-252.475	223.319	-46.816	-153.158	-8.669	-46.816	31.938	-8.669	0	0	0	-137.327	23.079	50.745	-110.202	21.135	166.871	-149.921	-89.553	57.155
30	0.3	-80.394	-15.688	163.297	-119.874	-257.004	197.828	-100.642	-252.42	223.295	-46.816	-153.158	-8.669	-46.816	31.938	-8.669	0	0	0	-137.244	23.148	50.796	-110.153	21.195	166.93	-149.852	-89.483	57.196
31	0.31	-80.436	-15.665	163.384	-119.971	-256.972	197.911	-100.741	-252.392	223.38	-46.816	-153.158	-8.669	-46.816	31.938	-8.669	0	0	0	-137.167	23.241	50.925	-110.109	21.277	167.066	-149.79	-89.389	57.313
32	0.32	-80.457	-15.711	163.509	-120.038	-257.009	198.045	-100.809	-252.431	223.515	-46.816	-153.158	-8.669	-46.816	31.938	-8.669	0	0	0	-137.17	23.283	51.039	-110.125	21.306	167.184	-149.802	-89.347	57.416
33	0.33	-80.45	-15.82	163.684	-120.077	-257.11	198.225	-100.846	-252.536	223.693	-46.816	-153.158	-8.669	-46.816	31.938	-8.669	0	0	0	-137.25	23.204	51.114	-110.201	21.211	167.257	-149.896	-89.425	57.48
34	0.34	-80.422	-15.944	163.864	-120.114	-257.225	198.395	-100.879	-252.657	223.862	-46.816	-153.158	-8.669	-46.816	31.938	-8.669	0	0	0	-137.343	23.057	51.185	-110.293	21.048	167.327	-150.018	-89.569	57.541
35	0.35	-80.431	-16.04	163.904	-120.197	-257.31	198.427	-100.954	-252.751	223.89	-46.816	-153.158	-8.669	-46.816	31.938	-8.669	0	0	0	-137.373	22.944	51.271	-110.331	20.917	167.415	-150.086	-89.679	57.618
36	0.36	-80.521	-16.047	163.785	-120.334	-257.309	198.309	-101.08	-252.756	223.765	-46.816	-153.158	-8.669	-46.816	31.938	-8.669	0	0	0	-137.345	22.925	51.34	-110.308	20.88	167.484	-150.092	-89.693	57.676
37	0.37	-80.651	-15.973	163.684	-120.481	-257.233	198.201	-101.221	-252.684	223.653	-46.816	-153.158	-8.669	-46.816	31.938	-8.669	0	0	0	-137.351	23.008	51.359	-110.308	20.947	167.503	-150.115	-89.61	57.686
38	0.38	-80.76	-15.924	163.712	-120.615	-257.183	198.208	-101.353	-252.638	223.659	-46.816	-153.158	-8.669	-46.816	31.938	-8.669	0	0	0	-137.409	23.12	51.346	-110.357	21.049	167.487	-150.171	-89.498	57.663
